<svg xmlns="http://www.w3.org/2000/svg" width="12" height="20" viewBox="0 0 12 20">
  <defs>
    <style>
      .cls-1 {
        fill: #41ae1b;
        fill-rule: evenodd;
      }
    </style>
  </defs>
  <path id="icon-brach.svg" class="cls-1" d="M565.6,1145.64l0.109,1.11h10.586l0.109-1.11H565.6Zm10.855-6.64h-6.545a0.543,0.543,0,0,0-.487.31l-0.6,1.22-0.6-1.22a0.543,0.543,0,0,0-.487-0.31h-2.182a0.553,0.553,0,0,0-.542.61l0.486,4.92h11.022l0.484-4.92A0.551,0.551,0,0,0,576.454,1139Zm-10.651,8.9,0.082,0.83a2.742,2.742,0,0,0,2.714,2.5h0.669l-0.677,4.83a2.535,2.535,0,0,0,2.2,2.93,2.458,2.458,0,0,0,2.613-2.82l-0.694-4.94h0.669a2.74,2.74,0,0,0,2.713-2.5l0.082-.83H565.8Zm5.571,8.72a0.552,0.552,0,0,1-.772,0,0.568,0.568,0,0,1,0-.79,0.551,0.551,0,0,1,.771,0A0.569,0.569,0,0,1,571.374,1156.62Z" transform="translate(-565 -1139)"/>
</svg>
