<svg xmlns="http://www.w3.org/2000/svg" width="20" height="20" viewBox="0 0 20 20">
  <defs>
    <style>
      .cls-1 {
        fill: #d15656;
        fill-rule: evenodd;
      }
    </style>
  </defs>
  <path id="icon-price-down.svg" class="cls-1" d="M944.66,963.98a9.956,9.956,0,0,0-3.639-3.64,10.062,10.062,0,0,0-10.041,0,9.951,9.951,0,0,0-3.64,3.64,10.067,10.067,0,0,0,0,10.04,9.944,9.944,0,0,0,3.64,3.64,10.067,10.067,0,0,0,10.04,0,9.944,9.944,0,0,0,3.64-3.64A10.067,10.067,0,0,0,944.66,963.98Zm-2.526,8.575a7.057,7.057,0,0,1-2.579,2.579,7.127,7.127,0,0,1-7.11,0,7.054,7.054,0,0,1-2.578-2.579,7.12,7.12,0,0,1,0-7.11,7.061,7.061,0,0,1,2.578-2.579,7.127,7.127,0,0,1,7.11,0,7.064,7.064,0,0,1,2.579,2.579A7.127,7.127,0,0,1,942.134,972.555ZM940.168,969h-2.5v-4.584a0.4,0.4,0,0,0-.416-0.417h-2.5a0.4,0.4,0,0,0-.417.417V969h-2.5a0.388,0.388,0,0,0-.391.26,0.4,0.4,0,0,0,.091.456l4.168,4.167a0.442,0.442,0,0,0,.6,0l4.154-4.154a0.487,0.487,0,0,0,.13-0.312A0.4,0.4,0,0,0,940.168,969Z" transform="translate(-926 -959)"/>
</svg>
