<svg xmlns="http://www.w3.org/2000/svg" width="232.789" height="279.558" viewBox="0 0 232.789 279.558">
  <g id="Group_3" data-name="Group 3" transform="translate(-331.745 -106.598)" opacity="0.2">
    <g id="Group_2" data-name="Group 2">
      <g id="Group_1" data-name="Group 1">
        <path id="Path_1" data-name="Path 1" d="M496.987,201.806l-65.164-58.45a18.467,18.467,0,0,0-24.659,0l-65.181,58.431a18.5,18.5,0,0,0-6.139,13.749l-.019,128.436,40.794,37.95,108.012.016a17.591,17.591,0,0,0,1.975-.106A18.469,18.469,0,0,0,503.1,363.471l.022-147.914A18.5,18.5,0,0,0,496.987,201.806ZM419.075,212.2a21.216,21.216,0,1,1,21.219-21.213A21.215,21.215,0,0,1,419.075,212.2Z" fill="#b3b3b3"/>
        <path id="Path_2" data-name="Path 2" d="M484.631,386.014,375.014,386l-43.269-40.252.019-130.214a22.61,22.61,0,0,1,7.491-16.781l65.186-58.436a22.52,22.52,0,0,1,30.106,0l65.17,58.456a22.613,22.613,0,0,1,7.484,16.783l-.021,147.914a22.493,22.493,0,0,1-20.143,22.414A21.647,21.647,0,0,1,484.631,386.014Zm-106.407-8.176,106.408.016a13.5,13.5,0,0,0,1.514-.08,14.356,14.356,0,0,0,12.874-14.3l.022-147.914a14.447,14.447,0,0,0-4.783-10.717L429.1,146.393a14.371,14.371,0,0,0-19.212,0l-65.181,58.431a14.438,14.438,0,0,0-4.782,10.712L339.9,342.192Zm40.851-161.559a25.3,25.3,0,1,1,25.3-25.292A25.325,25.325,0,0,1,419.075,216.279Zm.006-42.432a17.136,17.136,0,1,0,17.133,17.139A17.155,17.155,0,0,0,419.081,173.847Z" fill="#b3b3b3"/>
      </g>
    </g>
    <path id="Path_3" data-name="Path 3" d="M353.256,108.07l47.773,26.305-65.181,58.432.011-74.458A11.736,11.736,0,0,1,353.256,108.07Z" fill="#b3b3b3"/>
    <path id="Path_4" data-name="Path 4" d="M503.544,118.374l-.011,74.458-65.164-58.451L486.15,108.09A11.736,11.736,0,0,1,503.544,118.374Z" fill="#b3b3b3"/>
    <path id="Path_5" data-name="Path 5" d="M376.619,381.918l0-25.836c0-7.279-5.936-12.517-13.215-12.518l-27.583,0Z" fill="#b3b3b3"/>
    <path id="Path_6" data-name="Path 6" d="M549.94,195.734c-12-1.007-22.4,9.887-27.832,19.42-4.373,7.674-6.794,16.325-8.209,25.043-4.274,26.334.358,53.347,7.54,79.041,1.574,5.632,3.288,11.338,2.126,17.3a13.888,13.888,0,0,1-3.954,7.443c-4.379,4.163-10.03,4.469-15.9,4.136,0,.039,0,.076-.007.116-.073.7-.147,1.406-.222,2.114.45,8.46,1.193,17.822-4.109,24.615-4.651,5.959-12.194,7.5-19.434,7.382,2.293,2.133-3.128,3.332,0,3.789,1.694.032,8.1.016,12.117.007a35.01,35.01,0,0,0,7.989-.885,53.963,53.963,0,0,0,9.075-3.056c9.694-4.249,18.726-10.573,24.639-19.352,9.575-14.217,9.767-32.683,7.835-49.715s-5.635-34.265-2.634-51.141a65.724,65.724,0,0,1,13.067-29.084c3.723-4.714,8.144-8.989,10.755-14.4C567.8,208.106,561.583,196.711,549.94,195.734Z" fill="#b3b3b3"/>
  </g>
</svg>
