<svg xmlns="http://www.w3.org/2000/svg" width="18" height="18" viewBox="0 0 18 18">
  <metadata><?xpacket begin="﻿" id="W5M0MpCehiHzreSzNTczkc9d"?>
<x:xmpmeta xmlns:x="adobe:ns:meta/" x:xmptk="Adobe XMP Core 5.6-c138 79.159824, 2016/09/14-01:09:01        ">
   <rdf:RDF xmlns:rdf="http://www.w3.org/1999/02/22-rdf-syntax-ns#">
      <rdf:Description rdf:about=""/>
   </rdf:RDF>
</x:xmpmeta>
                                                                                                    
                                                                                                    
                                                                                                    
                                                                                                    
                                                                                                    
                                                                                                    
                                                                                                    
                                                                                                    
                                                                                                    
                                                                                                    
                                                                                                    
                                                                                                    
                                                                                                    
                                                                                                    
                                                                                                    
                                                                                                    
                                                                                                    
                                                                                                    
                                                                                                    
                                                                                                    
                           
<?xpacket end="w"?></metadata>
<defs>
    <style>
      .cls-1 {
        fill: #2c81d1;
        fill-rule: evenodd;
      }
    </style>
  </defs>
  <path id="icon-copy.svg" class="cls-1" d="M1341.22,959h-13.5a0.714,0.714,0,0,1-.72-0.711V944.853a0.714,0.714,0,0,1,.72-0.711h13.5a0.714,0.714,0,0,1,.72.711V958.29A0.714,0.714,0,0,1,1341.22,959Zm-12.79-1.422h12.08V945.564h-12.08v12.015Zm15.86-1.72h-1.46a0.711,0.711,0,0,1,0-1.422h0.74V942.422h-12.08v0.791a0.715,0.715,0,0,1-1.43,0v-1.5a0.714,0.714,0,0,1,.72-0.711h13.51a0.712,0.712,0,0,1,.71.711v13.437A0.712,0.712,0,0,1,1344.29,955.859Z" transform="translate(-1327 -941)"/>
</svg>
