<svg xmlns="http://www.w3.org/2000/svg" xmlns:xlink="http://www.w3.org/1999/xlink" width="24" height="26" viewBox="0 0 24 26"><defs><path id="5sf8a" d="M90.623 5786.39c0-.802.198-1.552.594-2.25a4.747 4.747 0 0 1-.047-.672c0-1.052.313-1.98.938-2.781-.01-1.448.433-2.592 1.328-3.43.896-.84 2.079-1.259 3.548-1.259H99c1 0 1.987.117 2.961.352.974.235 2.102.575 3.383 1.024 1.209.416 1.928.625 2.157.625h4.5c.553 0 1.024.195 1.415.586.39.39.586.862.586 1.414v10c0 .552-.196 1.024-.586 1.414-.391.391-.862.587-1.415.587h-4.281c-.375.25-1.09 1.058-2.141 2.422a30.061 30.061 0 0 1-1.673 2c-.25.26-.435.706-.554 1.336-.12.63-.279 1.29-.477 1.977-.198.688-.52 1.25-.969 1.688-.406.385-.875.578-1.406.578-.875 0-1.662-.17-2.36-.508a3.437 3.437 0 0 1-1.594-1.587c-.365-.718-.547-1.687-.547-2.905 0-.97.25-1.97.75-3h-2.75c-1.084 0-2.021-.396-2.813-1.188-.792-.793-1.188-1.725-1.188-2.797 0-.927.255-1.777.766-2.548a4.075 4.075 0 0 1-.14-1.079zm19.378-5.391c0 .27.099.505.297.702a.96.96 0 0 0 .703.298c.271 0 .505-.099.703-.298a.959.959 0 0 0 .297-.702.962.962 0 0 0-.297-.703.962.962 0 0 0-.703-.298c-.27 0-.505.1-.703.298a.961.961 0 0 0-.297.703zm-18.003 9c0 .532.204.998.61 1.4.406.4.87.6 1.39.6H99.5c0 .604-.25 1.435-.75 2.493-.5 1.057-.75 1.893-.75 2.508 0 1.02.167 1.776.5 2.266.333.49 1 .734 2 .734.271-.271.47-.713.595-1.328a28.41 28.41 0 0 1 .476-1.961c.193-.693.503-1.264.93-1.711.23-.24.63-.714 1.203-1.422.042-.053.162-.209.36-.47a32.313 32.313 0 0 1 1.031-1.305 8.79 8.79 0 0 1 .625-.686c.188-.182.388-.367.602-.555a2.65 2.65 0 0 1 .625-.422c.203-.094.388-.14.554-.14h.5v-10.001h-.5c-.135 0-.299-.016-.492-.047a7.05 7.05 0 0 1-.515-.102 8.597 8.597 0 0 1-.594-.172 19.928 19.928 0 0 1-.547-.18l-.555-.194c-.25-.089-.401-.144-.453-.164-2.199-.76-3.98-1.14-5.345-1.14h-1.89c-2 0-3.001.869-3.001 2.609 0 .27.026.562.078.874-.313.167-.56.44-.742.82-.183.38-.274.764-.274 1.149 0 .386.094.745.282 1.078-.553.52-.828 1.14-.828 1.86 0 .26.051.549.156.866.104.318.234.566.39.743-.333.01-.612.255-.836.734-.224.48-.336.902-.336 1.267z"/></defs><g><g transform="translate(-90 -5776)"><use fill="#b3b3b3" xlink:href="#5sf8a"/></g></g></svg>