<svg xmlns="http://www.w3.org/2000/svg" xmlns:xlink="http://www.w3.org/1999/xlink" width="24" height="24" viewBox="0 0 24 24"><defs><path id="275va" d="M31.54 86c.602 0 1.09.489 1.09 1.092v19.184l3.594-3.592a1.091 1.091 0 1 1 1.544 1.543l-5.457 5.454a1.091 1.091 0 0 1-1.543 0l-5.457-5.454a1.091 1.091 0 1 1 1.544-1.543l3.593 3.592V87.092c0-.603.489-1.091 1.091-1.091zm10.14.32a1.091 1.091 0 0 1 1.544 0l5.456 5.455a1.087 1.087 0 0 1 0 1.542 1.091 1.091 0 0 1-1.543 0l-3.593-3.592v19.185a1.091 1.091 0 0 1-2.183 0V89.725l-3.593 3.593a1.092 1.092 0 0 1-1.544-1.543z"/></defs><g><g transform="translate(-25 -86)"><use fill="#2c81d1" xlink:href="#275va"/></g></g></svg>