<svg xmlns="http://www.w3.org/2000/svg" xmlns:xlink="http://www.w3.org/1999/xlink" width="18" height="24" viewBox="0 0 18 24"><defs><path id="tm4ra" d="M1111 143c0 4.954-4.023 8.986-8.974 9H1102c-4.962 0-9-4.037-9-9 0-.17 0-.34.01-.51.147-5.108 2.665-6.387 2.772-6.438a.498.498 0 0 1 .713.38c.005.032.467 3.082 2.506 3.518.008-1.314.067-3.303.514-5.072.644-2.54 2.486-5.203 4.694-6.783a.5.5 0 0 1 .791.407c0 2.334 1.176 3.917 2.537 5.75 1.47 1.978 3.137 4.221 3.412 7.8 0 0 .051.7.051.949zm-6 4.804c0-.093-.006-.178-.013-.265-.105-1.45-.703-2.3-1.281-3.122-.405-.574-.819-1.162-1.031-1.89-.478.56-.855 1.26-1.012 1.917-.178.74-.192 1.562-.192 2.274a.5.5 0 0 1-.5.5c-.843 0-1.361-.573-1.651-1.197-.155.338-.296.846-.316 1.589-.004.074-.004.134-.004.194 0 1.763 1.346 3.196 3 3.196s3-1.433 3-3.196z"/></defs><g><g transform="translate(-1093 -128)"><use fill="#d15656" xlink:href="#tm4ra"/></g></g></svg>