<svg xmlns="http://www.w3.org/2000/svg" xmlns:xlink="http://www.w3.org/1999/xlink" width="24" height="26" viewBox="0 0 24 26"><defs><path id="7d2ha" d="M48.377 5785.61c0 .802-.198 1.552-.594 2.25.031.218.047.442.047.671 0 1.053-.313 1.98-.938 2.782.01 1.447-.433 2.591-1.328 3.43-.896.838-2.079 1.258-3.548 1.258h-2.015c-1 0-1.988-.117-2.962-.352-.974-.234-2.102-.575-3.383-1.024-1.209-.417-1.928-.625-2.157-.625H27a1.927 1.927 0 0 1-1.415-.586 1.927 1.927 0 0 1-.586-1.414v-10c0-.553.196-1.024.586-1.415.391-.39.862-.585 1.415-.585h4.281c.375-.25 1.09-1.058 2.141-2.423a29.766 29.766 0 0 1 1.673-2c.25-.26.435-.706.554-1.336.12-.63.279-1.29.477-1.976.198-.688.52-1.251.969-1.689.406-.385.875-.577 1.406-.577.875 0 1.662.169 2.36.507.698.338 1.23.867 1.594 1.586.365.719.547 1.688.547 2.907 0 .968-.25 1.969-.75 3h2.75c1.084 0 2.022.396 2.813 1.187.792.793 1.188 1.725 1.188 2.798 0 .927-.255 1.776-.766 2.547.094.344.14.703.14 1.079zM28.999 5791a.96.96 0 0 0-.297-.703A.961.961 0 0 0 28 5790c-.271 0-.505.1-.703.297a.96.96 0 0 0-.297.703c0 .271.099.506.297.704a.962.962 0 0 0 .703.297c.27 0 .505-.1.703-.297A.962.962 0 0 0 29 5791zm18.003-9c0-.531-.204-.998-.61-1.399-.406-.4-.87-.601-1.39-.601H39.5c0-.604.25-1.435.75-2.493.5-1.057.75-1.894.75-2.508 0-1.02-.167-1.776-.5-2.266-.333-.49-1-.734-2-.734-.271.27-.47.713-.595 1.328a28.424 28.424 0 0 1-.476 1.962c-.193.692-.503 1.263-.93 1.71-.23.24-.63.714-1.203 1.422-.042.053-.162.209-.36.47a32.325 32.325 0 0 1-1.031 1.305 8.79 8.79 0 0 1-.625.686c-.188.183-.388.368-.602.556a2.645 2.645 0 0 1-.625.422c-.203.093-.388.14-.554.14H31v10h.5c.135 0 .3.016.492.047.192.032.364.065.515.102.151.036.35.093.594.172.245.078.427.138.547.18l.555.194c.25.089.401.144.453.165 2.199.76 3.98 1.14 5.345 1.14h1.89c2 0 3.001-.87 3.001-2.61 0-.27-.026-.562-.078-.875.313-.166.56-.44.742-.82.183-.38.274-.762.274-1.148 0-.386-.094-.745-.282-1.078.553-.52.828-1.14.828-1.86 0-.26-.051-.549-.156-.866-.104-.318-.234-.566-.39-.743.333-.01.612-.255.836-.734.224-.48.336-.902.336-1.266z"/></defs><g><g transform="translate(-25 -5770)"><use fill="#b3b3b3" xlink:href="#7d2ha"/></g></g></svg>